{
  "ffprobe": {
    "audio_streams": [
      {
        "avg_frame_rate": "0/0",
        "bit_rate": "1152000",
        "bits_per_raw_sample": "24",
        "bits_per_sample": 24,
        "channels": 1,
        "codec_long_name": "PCM signed 24-bit little-endian",
        "codec_name": "pcm_s24le",
        "codec_tag": "0x0000",
        "codec_tag_string": "[0][0][0][0]",
        "codec_time_base": "1/48000",
        "codec_type": "audio",
        "disposition": {
          "attached_pic": 0,
          "clean_effects": 0,
          "comment": 0,
          "default": 0,
          "dub": 0,
          "forced": 0,
          "hearing_impaired": 0,
          "karaoke": 0,
          "lyrics": 0,
          "original": 0,
          "timed_thumbnails": 0,
          "visual_impaired": 0
        },
        "duration": "429.000000",
        "duration_ts": 20592000,
        "index": 1,
        "r_frame_rate": "0/0",
        "sample_fmt": "s32",
        "sample_rate": "48000",
        "start_pts": 0,
        "start_time": "0.000000",
        "tags": {
          "file_package_umid": "0x060A2B340101010501010D33130000002FB4A502859CF546959BFB3942F6734B"
        },
        "time_base": "1/48000"
      },
      {
        "avg_frame_rate": "0/0",
        "bit_rate": "1152000",
        "bits_per_raw_sample": "24",
        "bits_per_sample": 24,
        "channels": 1,
        "codec_long_name": "PCM signed 24-bit little-endian",
        "codec_name": "pcm_s24le",
        "codec_tag": "0x0000",
        "codec_tag_string": "[0][0][0][0]",
        "codec_time_base": "1/48000",
        "codec_type": "audio",
        "disposition": {
          "attached_pic": 0,
          "clean_effects": 0,
          "comment": 0,
          "default": 0,
          "dub": 0,
          "forced": 0,
          "hearing_impaired": 0,
          "karaoke": 0,
          "lyrics": 0,
          "original": 0,
          "timed_thumbnails": 0,
          "visual_impaired": 0
        },
        "duration": "429.000000",
        "duration_ts": 20592000,
        "index": 2,
        "r_frame_rate": "0/0",
        "sample_fmt": "s32",
        "sample_rate": "48000",
        "start_pts": 0,
        "start_time": "0.000000",
        "tags": {
          "file_package_umid": "0x060A2B340101010501010D33130000002FB4A502859CF546959BFB3942F6734B"
        },
        "time_base": "1/48000"
      },
      {
        "avg_frame_rate": "0/0",
        "bit_rate": "1152000",
        "bits_per_raw_sample": "24",
        "bits_per_sample": 24,
        "channels": 1,
        "codec_long_name": "PCM signed 24-bit little-endian",
        "codec_name": "pcm_s24le",
        "codec_tag": "0x0000",
        "codec_tag_string": "[0][0][0][0]",
        "codec_time_base": "1/48000",
        "codec_type": "audio",
        "disposition": {
          "attached_pic": 0,
          "clean_effects": 0,
          "comment": 0,
          "default": 0,
          "dub": 0,
          "forced": 0,
          "hearing_impaired": 0,
          "karaoke": 0,
          "lyrics": 0,
          "original": 0,
          "timed_thumbnails": 0,
          "visual_impaired": 0
        },
        "duration": "429.000000",
        "duration_ts": 20592000,
        "index": 3,
        "r_frame_rate": "0/0",
        "sample_fmt": "s32",
        "sample_rate": "48000",
        "start_pts": 0,
        "start_time": "0.000000",
        "tags": {
          "file_package_umid": "0x060A2B340101010501010D33130000002FB4A502859CF546959BFB3942F6734B"
        },
        "time_base": "1/48000"
      },
      {
        "avg_frame_rate": "0/0",
        "bit_rate": "1152000",
        "bits_per_raw_sample": "24",
        "bits_per_sample": 24,
        "channels": 1,
        "codec_long_name": "PCM signed 24-bit little-endian",
        "codec_name": "pcm_s24le",
        "codec_tag": "0x0000",
        "codec_tag_string": "[0][0][0][0]",
        "codec_time_base": "1/48000",
        "codec_type": "audio",
        "disposition": {
          "attached_pic": 0,
          "clean_effects": 0,
          "comment": 0,
          "default": 0,
          "dub": 0,
          "forced": 0,
          "hearing_impaired": 0,
          "karaoke": 0,
          "lyrics": 0,
          "original": 0,
          "timed_thumbnails": 0,
          "visual_impaired": 0
        },
        "duration": "429.000000",
        "duration_ts": 20592000,
        "index": 4,
        "r_frame_rate": "0/0",
        "sample_fmt": "s32",
        "sample_rate": "48000",
        "start_pts": 0,
        "start_time": "0.000000",
        "tags": {
          "file_package_umid": "0x060A2B340101010501010D33130000002FB4A502859CF546959BFB3942F6734B"
        },
        "time_base": "1/48000"
      },
      {
        "avg_frame_rate": "0/0",
        "bit_rate": "1152000",
        "bits_per_raw_sample": "24",
        "bits_per_sample": 24,
        "channels": 1,
        "codec_long_name": "PCM signed 24-bit little-endian",
        "codec_name": "pcm_s24le",
        "codec_tag": "0x0000",
        "codec_tag_string": "[0][0][0][0]",
        "codec_time_base": "1/48000",
        "codec_type": "audio",
        "disposition": {
          "attached_pic": 0,
          "clean_effects": 0,
          "comment": 0,
          "default": 0,
          "dub": 0,
          "forced": 0,
          "hearing_impaired": 0,
          "karaoke": 0,
          "lyrics": 0,
          "original": 0,
          "timed_thumbnails": 0,
          "visual_impaired": 0
        },
        "duration": "429.000000",
        "duration_ts": 20592000,
        "index": 5,
        "r_frame_rate": "0/0",
        "sample_fmt": "s32",
        "sample_rate": "48000",
        "start_pts": 0,
        "start_time": "0.000000",
        "tags": {
          "file_package_umid": "0x060A2B340101010501010D33130000002FB4A502859CF546959BFB3942F6734B"
        },
        "time_base": "1/48000"
      },
      {
        "avg_frame_rate": "0/0",
        "bit_rate": "1152000",
        "bits_per_raw_sample": "24",
        "bits_per_sample": 24,
        "channels": 1,
        "codec_long_name": "PCM signed 24-bit little-endian",
        "codec_name": "pcm_s24le",
        "codec_tag": "0x0000",
        "codec_tag_string": "[0][0][0][0]",
        "codec_time_base": "1/48000",
        "codec_type": "audio",
        "disposition": {
          "attached_pic": 0,
          "clean_effects": 0,
          "comment": 0,
          "default": 0,
          "dub": 0,
          "forced": 0,
          "hearing_impaired": 0,
          "karaoke": 0,
          "lyrics": 0,
          "original": 0,
          "timed_thumbnails": 0,
          "visual_impaired": 0
        },
        "duration": "429.000000",
        "duration_ts": 20592000,
        "index": 6,
        "r_frame_rate": "0/0",
        "sample_fmt": "s32",
        "sample_rate": "48000",
        "start_pts": 0,
        "start_time": "0.000000",
        "tags": {
          "file_package_umid": "0x060A2B340101010501010D33130000002FB4A502859CF546959BFB3942F6734B"
        },
        "time_base": "1/48000"
      },
      {
        "avg_frame_rate": "0/0",
        "bit_rate": "1152000",
        "bits_per_raw_sample": "24",
        "bits_per_sample": 24,
        "channels": 1,
        "codec_long_name": "PCM signed 24-bit little-endian",
        "codec_name": "pcm_s24le",
        "codec_tag": "0x0000",
        "codec_tag_string": "[0][0][0][0]",
        "codec_time_base": "1/48000",
        "codec_type": "audio",
        "disposition": {
          "attached_pic": 0,
          "clean_effects": 0,
          "comment": 0,
          "default": 0,
          "dub": 0,
          "forced": 0,
          "hearing_impaired": 0,
          "karaoke": 0,
          "lyrics": 0,
          "original": 0,
          "timed_thumbnails": 0,
          "visual_impaired": 0
        },
        "duration": "429.000000",
        "duration_ts": 20592000,
        "index": 7,
        "r_frame_rate": "0/0",
        "sample_fmt": "s32",
        "sample_rate": "48000",
        "start_pts": 0,
        "start_time": "0.000000",
        "tags": {
          "file_package_umid": "0x060A2B340101010501010D33130000002FB4A502859CF546959BFB3942F6734B"
        },
        "time_base": "1/48000"
      },
      {
        "avg_frame_rate": "0/0",
        "bit_rate": "1152000",
        "bits_per_raw_sample": "24",
        "bits_per_sample": 24,
        "channels": 1,
        "codec_long_name": "PCM signed 24-bit little-endian",
        "codec_name": "pcm_s24le",
        "codec_tag": "0x0000",
        "codec_tag_string": "[0][0][0][0]",
        "codec_time_base": "1/48000",
        "codec_type": "audio",
        "disposition": {
          "attached_pic": 0,
          "clean_effects": 0,
          "comment": 0,
          "default": 0,
          "dub": 0,
          "forced": 0,
          "hearing_impaired": 0,
          "karaoke": 0,
          "lyrics": 0,
          "original": 0,
          "timed_thumbnails": 0,
          "visual_impaired": 0
        },
        "duration": "429.000000",
        "duration_ts": 20592000,
        "index": 8,
        "r_frame_rate": "0/0",
        "sample_fmt": "s32",
        "sample_rate": "48000",
        "start_pts": 0,
        "start_time": "0.000000",
        "tags": {
          "file_package_umid": "0x060A2B340101010501010D33130000002FB4A502859CF546959BFB3942F6734B"
        },
        "time_base": "1/48000"
      }
    ],
    "format": {
      "bit_rate": "60153933",
      "duration": "429.000000",
      "filename": "/mnt/archive2/UCI/201911/9389925004/9389925004_original.mxf",
      "filename_extension": "mxf",
      "format_long_name": "MXF (Material eXchange Format)",
      "format_name": "mxf",
      "nb_programs": 0,
      "probe_score": 100,
      "size": "3225754700",
      "start_time": "0.000000",
      "streams_attachment_count": 0,
      "streams_audio_count": 8,
      "streams_count": 9,
      "streams_data_count": 0,
      "streams_image_count": 0,
      "streams_subtitle_count": 0,
      "streams_video_count": 1
    },
    "video_streams": [
      {
        "avg_frame_rate": "25/1",
        "bit_rate": "50000000",
        "chroma_location": "topleft",
        "codec_long_name": "MPEG-2 video",
        "codec_name": "mpeg2video",
        "codec_tag": "0x0000",
        "codec_tag_string": "[0][0][0][0]",
        "codec_time_base": "1/25",
        "codec_type": "video",
        "coded_height": 0,
        "coded_width": 0,
        "color_range": "tv",
        "display_aspect_ratio": "16:9",
        "disposition": {
          "attached_pic": 0,
          "clean_effects": 0,
          "comment": 0,
          "default": 0,
          "dub": 0,
          "forced": 0,
          "hearing_impaired": 0,
          "karaoke": 0,
          "lyrics": 0,
          "original": 0,
          "timed_thumbnails": 0,
          "visual_impaired": 0
        },
        "duration": "429.000000",
        "duration_ts": 10725,
        "field_order": "tt",
        "has_b_frames": 1,
        "height": 1080,
        "index": 0,
        "level": 2,
        "pix_fmt": "yuv422p",
        "profile": "4:2:2",
        "r_frame_rate": "25/1",
        "refs": 1,
        "sample_aspect_ratio": "1:1",
        "start_pts": 0,
        "start_time": "0.000000",
        "tags": {
          "file_package_umid": "0x060A2B340101010501010D33130000002FB4A502859CF546959BFB3942F6734B"
        },
        "time_base": "1/25",
        "width": 1920
      }
    ]
  },
  "mediainfo": {
    "audio_streams": [
      {
        "BitDepth": 24,
        "BitRate": 1152000,
        "BitRate_Mode": "CBR",
        "Channels": 1,
        "CodecID": "0D01030102060300",
        "Delay": "0.000",
        "Delay_DropFrame": "No",
        "Delay_Source": "Container",
        "Duration": "429.000",
        "Format": "PCM",
        "Format_Settings_Endianness": "Little",
        "Format_Settings_Wrapping": "Frame (AES)",
        "FrameCount": 10725,
        "FrameRate": "25.000",
        "ID": 3,
        "SamplesPerFrame": 1920,
        "SamplingCount": 20592000,
        "SamplingRate": 48000,
        "StreamOrder": 1,
        "StreamSize": 61776000,
        "StreamSize_Proportion": "0.01915",
        "extra": {
          "BlockAlignment": 3,
          "Delay_SDTI": 0,
          "Locked": "Yes"
        }
      },
      {
        "BitDepth": 24,
        "BitRate": 1152000,
        "BitRate_Mode": "CBR",
        "Channels": 1,
        "CodecID": "0D01030102060300",
        "Delay": "0.000",
        "Delay_DropFrame": "No",
        "Delay_Source": "Container",
        "Duration": "429.000",
        "Format": "PCM",
        "Format_Settings_Endianness": "Little",
        "Format_Settings_Wrapping": "Frame (AES)",
        "FrameCount": 10725,
        "FrameRate": "25.000",
        "ID": 4,
        "SamplesPerFrame": 1920,
        "SamplingCount": 20592000,
        "SamplingRate": 48000,
        "StreamOrder": 2,
        "StreamSize": 61776000,
        "StreamSize_Proportion": "0.01915",
        "extra": {
          "BlockAlignment": 3,
          "Delay_SDTI": 0,
          "Locked": "Yes"
        }
      },
      {
        "BitDepth": 24,
        "BitRate": 1152000,
        "BitRate_Mode": "CBR",
        "Channels": 1,
        "CodecID": "0D01030102060300",
        "Delay": "0.000",
        "Delay_DropFrame": "No",
        "Delay_Source": "Container",
        "Duration": "429.000",
        "Format": "PCM",
        "Format_Settings_Endianness": "Little",
        "Format_Settings_Wrapping": "Frame (AES)",
        "FrameCount": 10725,
        "FrameRate": "25.000",
        "ID": 5,
        "SamplesPerFrame": 1920,
        "SamplingCount": 20592000,
        "SamplingRate": 48000,
        "StreamOrder": 3,
        "StreamSize": 61776000,
        "StreamSize_Proportion": "0.01915",
        "extra": {
          "BlockAlignment": 3,
          "Delay_SDTI": 0,
          "Locked": "Yes"
        }
      },
      {
        "BitDepth": 24,
        "BitRate": 1152000,
        "BitRate_Mode": "CBR",
        "Channels": 1,
        "CodecID": "0D01030102060300",
        "Delay": "0.000",
        "Delay_DropFrame": "No",
        "Delay_Source": "Container",
        "Duration": "429.000",
        "Format": "PCM",
        "Format_Settings_Endianness": "Little",
        "Format_Settings_Wrapping": "Frame (AES)",
        "FrameCount": 10725,
        "FrameRate": "25.000",
        "ID": 6,
        "SamplesPerFrame": 1920,
        "SamplingCount": 20592000,
        "SamplingRate": 48000,
        "StreamOrder": 4,
        "StreamSize": 61776000,
        "StreamSize_Proportion": "0.01915",
        "extra": {
          "BlockAlignment": 3,
          "Delay_SDTI": 0,
          "Locked": "Yes"
        }
      },
      {
        "BitDepth": 24,
        "BitRate": 1152000,
        "BitRate_Mode": "CBR",
        "Channels": 1,
        "CodecID": "0D01030102060300",
        "Delay": "0.000",
        "Delay_DropFrame": "No",
        "Delay_Source": "Container",
        "Duration": "429.000",
        "Format": "PCM",
        "Format_Settings_Endianness": "Little",
        "Format_Settings_Wrapping": "Frame (AES)",
        "FrameCount": 10725,
        "FrameRate": "25.000",
        "ID": 7,
        "SamplesPerFrame": 1920,
        "SamplingCount": 20592000,
        "SamplingRate": 48000,
        "StreamOrder": 5,
        "StreamSize": 61776000,
        "StreamSize_Proportion": "0.01915",
        "extra": {
          "BlockAlignment": 3,
          "Delay_SDTI": 0,
          "Locked": "Yes"
        }
      },
      {
        "BitDepth": 24,
        "BitRate": 1152000,
        "BitRate_Mode": "CBR",
        "Channels": 1,
        "CodecID": "0D01030102060300",
        "Delay": "0.000",
        "Delay_DropFrame": "No",
        "Delay_Source": "Container",
        "Duration": "429.000",
        "Format": "PCM",
        "Format_Settings_Endianness": "Little",
        "Format_Settings_Wrapping": "Frame (AES)",
        "FrameCount": 10725,
        "FrameRate": "25.000",
        "ID": 8,
        "SamplesPerFrame": 1920,
        "SamplingCount": 20592000,
        "SamplingRate": 48000,
        "StreamOrder": 6,
        "StreamSize": 61776000,
        "StreamSize_Proportion": "0.01915",
        "extra": {
          "BlockAlignment": 3,
          "Delay_SDTI": 0,
          "Locked": "Yes"
        }
      },
      {
        "BitDepth": 24,
        "BitRate": 1152000,
        "BitRate_Mode": "CBR",
        "Channels": 1,
        "CodecID": "0D01030102060300",
        "Delay": "0.000",
        "Delay_DropFrame": "No",
        "Delay_Source": "Container",
        "Duration": "429.000",
        "Format": "PCM",
        "Format_Settings_Endianness": "Little",
        "Format_Settings_Wrapping": "Frame (AES)",
        "FrameCount": 10725,
        "FrameRate": "25.000",
        "ID": 9,
        "SamplesPerFrame": 1920,
        "SamplingCount": 20592000,
        "SamplingRate": 48000,
        "StreamOrder": 7,
        "StreamSize": 61776000,
        "StreamSize_Proportion": "0.01915",
        "extra": {
          "BlockAlignment": 3,
          "Delay_SDTI": 0,
          "Locked": "Yes"
        }
      },
      {
        "BitDepth": 24,
        "BitRate": 1152000,
        "BitRate_Mode": "CBR",
        "Channels": 1,
        "CodecID": "0D01030102060300",
        "Delay": "0.000",
        "Delay_DropFrame": "No",
        "Delay_Source": "Container",
        "Duration": "429.000",
        "Format": "PCM",
        "Format_Settings_Endianness": "Little",
        "Format_Settings_Wrapping": "Frame (AES)",
        "FrameCount": 10725,
        "FrameRate": "25.000",
        "ID": 10,
        "SamplesPerFrame": 1920,
        "SamplingCount": 20592000,
        "SamplingRate": 48000,
        "StreamOrder": 8,
        "StreamSize": 61776000,
        "StreamSize_Proportion": "0.01915",
        "extra": {
          "BlockAlignment": 3,
          "Delay_SDTI": 0,
          "Locked": "Yes"
        }
      }
    ],
    "format": {
      "AudioCount": 8,
      "Duration": "429.000",
      "Encoded_Application_CompanyName": "Rhozet",
      "Encoded_Application_Name": "Carbon",
      "Encoded_Application_Version": "1.00",
      "Encoded_Date": "2019-11-24 16:35:15.000",
      "FileExtension": "mxf",
      "FileSize": 3225754700,
      "File_Modified_Date": "UTC 2019-11-25 09:20:38",
      "File_Modified_Date_Local": "2019-11-25 09:20:38",
      "FooterSize": 184396,
      "Format": "MXF",
      "Format_Commercial_IfAny": "XDCAM HD422",
      "Format_Profile": "OP-1a",
      "Format_Settings": "Closed / Complete",
      "Format_Version": "1.2",
      "FrameCount": 10725,
      "FrameRate": "25.000",
      "OtherCount": 3,
      "OverallBitRate": 60153932,
      "StreamSize": 50296700,
      "VideoCount": 1,
      "filename": "/mnt/archive2/UCI/201911/9389925004/9389925004_original.mxf",
      "streams_attachment_count": 0,
      "streams_audio_count": 8,
      "streams_count": 9,
      "streams_data_count": 0,
      "streams_image_count": 0,
      "streams_other_count": 0,
      "streams_subtitle_count": 0,
      "streams_video_count": 1
    },
    "other_streams": [
      {
        "Format": "MXF TC",
        "ID": "1-Material",
        "TimeCode_FirstFrame": "00:00:00:00",
        "TimeCode_Settings": "Material Package",
        "TimeCode_Striped": "Yes",
        "Type": "Time code"
      },
      {
        "Format": "MXF TC",
        "ID": "1-Source",
        "TimeCode_FirstFrame": "00:00:00:00",
        "TimeCode_Settings": "Source Package",
        "TimeCode_Striped": "Yes",
        "Type": "Time code"
      },
      {
        "Format": "SMPTE TC",
        "MuxingMode": "SDTI",
        "TimeCode_FirstFrame": "00:00:00:00",
        "Type": "Time code"
      }
    ],
    "video_streams": [
      {
        "BitDepth": 8,
        "BitRate": 50000000,
        "BitRate_Mode": "CBR",
        "BufferSize": 2228224,
        "ChromaSubsampling": "4:2:2",
        "CodecID": "0D01030102046001-0401020201040300",
        "ColorSpace": "YUV",
        "Compression_Mode": "Lossy",
        "Delay": "0.000",
        "Delay_Original": "0.000",
        "DisplayAspectRatio": "1.778",
        "Duration": "429.000",
        "Format": "MPEG Video",
        "Format_Commercial_IfAny": "XDCAM HD422",
        "Format_Level": "High",
        "Format_Profile": "4:2:2",
        "Format_Settings_BVOP": "Yes",
        "Format_Settings_GOP": "M=3, N=12",
        "Format_Settings_Matrix": "Custom",
        "Format_Settings_Matrix_Data": "0810161B161013161B1B1D1D1A1610131A1A1D1D2223221B1D1A1816161A1A221B25262E2E26261D221B1B1B221D252838382823201D2023283A453022304553 / 101113151311121415161716151412121415161718191817161514131314161717181B1C1C1B19181716151617181A1B1E1E1A191817181A1B1E1F1C1A1C1F21",
        "Format_Settings_PictureStructure": "Frame",
        "Format_Settings_Wrapping": "Frame",
        "Format_Version": 2,
        "FrameCount": 10725,
        "FrameRate": "25.000",
        "Gop_OpenClosed": "Closed",
        "Height": 1080,
        "ID": 2,
        "PixelAspectRatio": "1.000",
        "Sampled_Height": 1080,
        "Sampled_Width": 1920,
        "ScanOrder": "TFF",
        "ScanType": "Interlaced",
        "StreamOrder": 0,
        "StreamSize": 2681250000,
        "TimeCode_FirstFrame": "00:00:00:00",
        "TimeCode_Source": "Group of pictures header",
        "Width": 1920,
        "colour_range": "Limited",
        "colour_range_Source": "Container",
        "extra": {
          "Delay_SDTI": 0,
          "intra_dc_precision": 9
        },
        "transfer_characteristics": "BT.709",
        "transfer_characteristics_Source": "Container"
      }
    ]
  }
}
